<?xml version="1.0" encoding="utf-8"?>
<!-- Generator: Adobe Illustrator 16.0.0, SVG Export Plug-In . SVG Version: 6.00 Build 0)  -->
<!DOCTYPE svg PUBLIC "-//W3C//DTD SVG 1.1//EN" "http://www.w3.org/Graphics/SVG/1.1/DTD/svg11.dtd">
<svg version="1.1" id="Layer_1" xmlns="http://www.w3.org/2000/svg" xmlns:xlink="http://www.w3.org/1999/xlink" x="0px" y="0px"
	 width="41.002px" height="41px" viewBox="0 0 41.002 41" enable-background="new 0 0 41.002 41" xml:space="preserve">
<g>
	<g>
		<path fill-rule="evenodd" clip-rule="evenodd" fill="#007AFF" d="M20.5,0C9.178,0,0,9.178,0,20.5C0,31.822,9.178,41,20.5,41
			s20.502-9.178,20.502-20.5C41.002,9.178,31.823,0,20.5,0z M30.495,14.81L17.642,27.743c-0.025,0.029-0.035,0.066-0.063,0.095
			c-0.5,0.502-1.311,0.502-1.811,0l-6.342-6.34c-0.502-0.5-0.502-1.312,0-1.812c0.5-0.5,1.311-0.5,1.811,0l5.416,5.416
			l12.029-12.103c0.502-0.5,1.312-0.5,1.812,0C30.995,13.5,30.995,14.311,30.495,14.81z"/>
	</g>
</g>
</svg>
